<svg xmlns="http://www.w3.org/2000/svg" width="16" height="17" viewBox="0 0 16 17" fill="none">
  <path d="M13.9997 8.3333H1.99967C1.35967 8.3333 0.833008 7.80663 0.833008 7.16663V4.9533C0.833008 4.49996 1.14632 4.03997 1.56632 3.8733L7.56633 1.47332C7.81966 1.37332 8.17969 1.37332 8.43302 1.47332L14.433 3.8733C14.853 4.03997 15.1663 4.50663 15.1663 4.9533V7.16663C15.1663 7.80663 14.6397 8.3333 13.9997 8.3333ZM7.99967 2.39332C7.97301 2.39332 7.94636 2.39328 7.93302 2.39995L1.93966 4.79998C1.89966 4.81998 1.83301 4.90663 1.83301 4.9533V7.16663C1.83301 7.25997 1.90634 7.3333 1.99967 7.3333H13.9997C14.093 7.3333 14.1663 7.25997 14.1663 7.16663V4.9533C14.1663 4.90663 14.1064 4.81998 14.0597 4.79998L8.05969 2.39995C8.04636 2.39328 8.02634 2.39332 7.99967 2.39332Z" fill="white"/>
  <path d="M14.6663 15.6667H1.33301C1.05967 15.6667 0.833008 15.44 0.833008 15.1667V13.1667C0.833008 12.5267 1.35967 12 1.99967 12H13.9997C14.6397 12 15.1663 12.5267 15.1663 13.1667V15.1667C15.1663 15.44 14.9397 15.6667 14.6663 15.6667ZM1.83301 14.6667H14.1663V13.1667C14.1663 13.0733 14.093 13 13.9997 13H1.99967C1.90634 13 1.83301 13.0733 1.83301 13.1667V14.6667Z" fill="white"/>
  <path d="M2.66699 13C2.39366 13 2.16699 12.7734 2.16699 12.5V7.83337C2.16699 7.56004 2.39366 7.33337 2.66699 7.33337C2.94033 7.33337 3.16699 7.56004 3.16699 7.83337V12.5C3.16699 12.7734 2.94033 13 2.66699 13Z" fill="white"/>
  <path d="M5.33301 13C5.05967 13 4.83301 12.7734 4.83301 12.5V7.83337C4.83301 7.56004 5.05967 7.33337 5.33301 7.33337C5.60634 7.33337 5.83301 7.56004 5.83301 7.83337V12.5C5.83301 12.7734 5.60634 13 5.33301 13Z" fill="white"/>
  <path d="M8 13C7.72667 13 7.5 12.7734 7.5 12.5V7.83337C7.5 7.56004 7.72667 7.33337 8 7.33337C8.27333 7.33337 8.5 7.56004 8.5 7.83337V12.5C8.5 12.7734 8.27333 13 8 13Z" fill="white"/>
  <path d="M10.667 13C10.3937 13 10.167 12.7734 10.167 12.5V7.83337C10.167 7.56004 10.3937 7.33337 10.667 7.33337C10.9403 7.33337 11.167 7.56004 11.167 7.83337V12.5C11.167 12.7734 10.9403 13 10.667 13Z" fill="white"/>
  <path d="M13.333 13C13.0597 13 12.833 12.7734 12.833 12.5V7.83337C12.833 7.56004 13.0597 7.33337 13.333 7.33337C13.6063 7.33337 13.833 7.56004 13.833 7.83337V12.5C13.833 12.7734 13.6063 13 13.333 13Z" fill="white"/>
  <path d="M15.3337 15.6666H0.666992C0.393659 15.6666 0.166992 15.44 0.166992 15.1666C0.166992 14.8933 0.393659 14.6666 0.666992 14.6666H15.3337C15.607 14.6666 15.8337 14.8933 15.8337 15.1666C15.8337 15.44 15.607 15.6666 15.3337 15.6666Z" fill="white"/>
  <path d="M8 6.66663C7.17333 6.66663 6.5 5.99329 6.5 5.16663C6.5 4.33996 7.17333 3.66663 8 3.66663C8.82667 3.66663 9.5 4.33996 9.5 5.16663C9.5 5.99329 8.82667 6.66663 8 6.66663ZM8 4.66663C7.72667 4.66663 7.5 4.89329 7.5 5.16663C7.5 5.43996 7.72667 5.66663 8 5.66663C8.27333 5.66663 8.5 5.43996 8.5 5.16663C8.5 4.89329 8.27333 4.66663 8 4.66663Z" fill="white"/>
</svg>
