<svg xmlns="http://www.w3.org/2000/svg" width="16" height="17" viewBox="0 0 16 17" fill="none">
  <path d="M8.00622 11.8334C7.43956 11.8334 6.86622 11.6867 6.41956 11.4L2.40622 8.78002C1.65956 8.29336 1.21289 7.47336 1.21289 6.58002C1.21289 5.68669 1.65956 4.86669 2.40622 4.38002L6.42622 1.76669C7.31956 1.18669 8.71289 1.18669 9.59956 1.77336L13.5929 4.39336C14.3329 4.88002 14.7796 5.70002 14.7796 6.58669C14.7796 7.47336 14.3329 8.29336 13.5929 8.78002L9.59956 11.4C9.15289 11.6934 8.57956 11.8334 8.00622 11.8334ZM8.00622 2.33336C7.62622 2.33336 7.24622 2.42002 6.97289 2.60669L2.95956 5.22002C2.49289 5.52669 2.21956 6.02002 2.21956 6.58002C2.21956 7.14002 2.48622 7.63336 2.95956 7.94002L6.97289 10.56C7.52622 10.92 8.49956 10.92 9.05289 10.56L13.0462 7.94002C13.5129 7.63336 13.7796 7.14002 13.7796 6.58002C13.7796 6.02002 13.5129 5.52669 13.0462 5.22002L9.05289 2.60002C8.77289 2.42669 8.39289 2.33336 8.00622 2.33336Z" fill="white"/>
  <path d="M8.00045 15.6666C7.70711 15.6666 7.40711 15.6266 7.16711 15.5466L5.04045 14.84C4.03378 14.5066 3.24045 13.4066 3.24711 12.3466L3.25378 9.21997C3.25378 8.94664 3.48045 8.71997 3.75378 8.71997C4.02711 8.71997 4.25378 8.94664 4.25378 9.21997L4.24711 12.3466C4.24711 12.9733 4.76711 13.6933 5.36045 13.8933L7.48711 14.6C7.75378 14.6866 8.24711 14.6866 8.51378 14.6L10.6404 13.8933C11.2338 13.6933 11.7538 12.9733 11.7538 12.3533V9.25997C11.7538 8.98664 11.9804 8.75997 12.2538 8.75997C12.5271 8.75997 12.7538 8.98664 12.7538 9.25997V12.3533C12.7538 13.4133 11.9671 14.5066 10.9604 14.8466L8.83378 15.5533C8.59378 15.6266 8.29378 15.6666 8.00045 15.6666Z" fill="white"/>
  <path d="M14.2666 11C13.9933 11 13.7666 10.7733 13.7666 10.5V6.5C13.7666 6.22667 13.9933 6 14.2666 6C14.5399 6 14.7666 6.22667 14.7666 6.5V10.5C14.7666 10.7733 14.5399 11 14.2666 11Z" fill="white"/>
</svg>
