<svg xmlns="http://www.w3.org/2000/svg" width="16" height="17" viewBox="0 0 16 17" fill="none">
  <path d="M1.33301 9.05332V10.5C1.33301 13.8333 2.66634 15.1666 5.99967 15.1666H9.99967C13.333 15.1666 14.6663 13.8333 14.6663 10.5V6.49998C14.6663 3.16665 13.333 1.83331 9.99967 1.83331H5.99967C2.66634 1.83331 1.33301 3.16665 1.33301 6.49998" stroke="white" stroke-linecap="round" stroke-linejoin="round"/>
  <path d="M6.73954 7.93335H4.97288C4.55288 7.93335 4.21289 8.27332 4.21289 8.69332V12.1066H6.73954V7.93335V7.93335Z" stroke="white" stroke-miterlimit="10" stroke-linecap="round" stroke-linejoin="round"/>
  <path d="M8.50576 4.89996H7.49241C7.07241 4.89996 6.73242 5.23997 6.73242 5.65997V12.1H9.25909V5.65997C9.25909 5.23997 8.92576 4.89996 8.50576 4.89996Z" stroke="white" stroke-miterlimit="10" stroke-linecap="round" stroke-linejoin="round"/>
  <path d="M11.0333 9.06665H9.2666V12.1H11.7933V9.82666C11.7866 9.40666 11.4466 9.06665 11.0333 9.06665Z" stroke="white" stroke-miterlimit="10" stroke-linecap="round" stroke-linejoin="round"/>
</svg>
